<svg width="40" height="41" viewBox="0 0 40 41" fill="none" xmlns="http://www.w3.org/2000/svg">
<circle cx="20" cy="20.5" r="20" fill="url(#paint0_linear_286_4198)"/>
<g filter="url(#filter0_ddi_286_4198)">
<path d="M25.54 17.3528C25.4744 17.3528 25.4186 17.3397 25.3727 17.3135C25.3268 17.2873 25.2907 17.2414 25.2645 17.1759L24.6938 15.839L23.2571 15.2099C23.1915 15.1837 23.1456 15.1477 23.1194 15.1018C23.0931 15.0559 23.08 15.0002 23.08 14.9347C23.08 14.8692 23.0931 14.8135 23.1194 14.7676C23.1456 14.7217 23.1915 14.6857 23.2571 14.6595L24.6938 14.05L25.2645 12.7722C25.2907 12.7066 25.3268 12.6607 25.3727 12.6345C25.4186 12.6083 25.4744 12.5952 25.54 12.5952C25.6056 12.5952 25.6614 12.6083 25.7073 12.6345C25.7532 12.6607 25.7893 12.7066 25.8155 12.7722L26.3862 14.05L27.8229 14.6595C27.8885 14.6857 27.9344 14.7217 27.9606 14.7676C27.9869 14.8135 28 14.8692 28 14.9347C28 15.0002 27.9869 15.0559 27.9606 15.1018C27.9344 15.1477 27.8885 15.1837 27.8229 15.2099L26.3862 15.839L25.8155 17.1759C25.7893 17.2414 25.7532 17.2873 25.7073 17.3135C25.6614 17.3397 25.6056 17.3528 25.54 17.3528ZM25.54 29.0699C25.4875 29.0699 25.435 29.0568 25.3826 29.0306C25.3301 29.0044 25.2907 28.9585 25.2645 28.893L24.6938 27.6151L23.2768 27.0056C23.2112 26.9794 23.1653 26.9434 23.139 26.8975C23.1128 26.8516 23.0997 26.7959 23.0997 26.7304C23.0997 26.6649 23.1128 26.6092 23.139 26.5633C23.1653 26.5174 23.2112 26.4814 23.2768 26.4552L24.6938 25.8457L25.2645 24.4892C25.2907 24.4237 25.3268 24.3778 25.3727 24.3516C25.4186 24.3254 25.4744 24.3123 25.54 24.3123C25.6056 24.3123 25.6614 24.3254 25.7073 24.3516C25.7532 24.3778 25.7893 24.4237 25.8155 24.4892L26.3862 25.8457L27.8032 26.4552C27.8688 26.4814 27.9147 26.5174 27.9409 26.5633C27.9672 26.6092 27.9803 26.6649 27.9803 26.7304C27.9803 26.7959 27.9672 26.8516 27.9409 26.8975C27.9147 26.9434 27.8688 26.9794 27.8032 27.0056L26.3862 27.6151L25.8155 28.893C25.7893 28.9585 25.7499 29.0044 25.6974 29.0306C25.645 29.0568 25.5925 29.0699 25.54 29.0699ZM16.9005 25.6688C16.7955 25.6688 16.6939 25.6393 16.5955 25.5803C16.4971 25.5214 16.4216 25.4394 16.3691 25.3346L15.0899 22.6019L12.3347 21.3634C12.2298 21.3109 12.1478 21.2356 12.0887 21.1373C12.0297 21.039 12.0002 20.9374 12.0002 20.8326C12.0002 20.7277 12.0297 20.6261 12.0887 20.5278C12.1478 20.4295 12.2298 20.3542 12.3347 20.3018L15.0899 19.0632L16.3691 16.3502C16.4216 16.2322 16.4971 16.1438 16.5955 16.0848C16.6939 16.0258 16.7955 15.9963 16.9005 15.9963C17.0055 15.9963 17.1071 16.0258 17.2055 16.0848C17.3039 16.1438 17.3794 16.2257 17.4319 16.3305L18.7307 19.0632L21.4662 20.3018C21.5843 20.3542 21.6729 20.4295 21.7319 20.5278C21.791 20.6261 21.8205 20.7277 21.8205 20.8326C21.8205 20.9374 21.791 21.039 21.7319 21.1373C21.6729 21.2356 21.5843 21.3109 21.4662 21.3634L18.7307 22.6019L17.4319 25.3346C17.3794 25.4525 17.3039 25.5377 17.2055 25.5902C17.1071 25.6426 17.0055 25.6688 16.9005 25.6688Z" fill="url(#paint1_linear_286_4198)" shape-rendering="crispEdges"/>
</g>
<defs>
<filter id="filter0_ddi_286_4198" x="5.63342" y="7.03344" width="28.0015" height="29.5741" filterUnits="userSpaceOnUse" color-interpolation-filters="sRGB">
<feFlood flood-opacity="0" result="BackgroundImageFix"/>
<feColorMatrix in="SourceAlpha" type="matrix" values="0 0 0 0 0 0 0 0 0 0 0 0 0 0 0 0 0 0 127 0" result="hardAlpha"/>
<feOffset dx="-1.31726" dy="2.48816"/>
<feGaussianBlur stdDeviation="2.52475"/>
<feComposite in2="hardAlpha" operator="out"/>
<feColorMatrix type="matrix" values="0 0 0 0 0.0506089 0 0 0 0 0.0159861 0 0 0 0 0.191833 0 0 0 0.25 0"/>
<feBlend mode="normal" in2="BackgroundImageFix" result="effect1_dropShadow_286_4198"/>
<feColorMatrix in="SourceAlpha" type="matrix" values="0 0 0 0 0 0 0 0 0 0 0 0 0 0 0 0 0 0 127 0" result="hardAlpha"/>
<feOffset dx="1.24408" dy="-1.1709"/>
<feGaussianBlur stdDeviation="2.19544"/>
<feComposite in2="hardAlpha" operator="out"/>
<feColorMatrix type="matrix" values="0 0 0 0 1 0 0 0 0 1 0 0 0 0 1 0 0 0 0.35 0"/>
<feBlend mode="normal" in2="effect1_dropShadow_286_4198" result="effect2_dropShadow_286_4198"/>
<feBlend mode="normal" in="SourceGraphic" in2="effect2_dropShadow_286_4198" result="shape"/>
<feColorMatrix in="SourceAlpha" type="matrix" values="0 0 0 0 0 0 0 0 0 0 0 0 0 0 0 0 0 0 127 0" result="hardAlpha"/>
<feOffset dy="3.07361"/>
<feGaussianBlur stdDeviation="1.9393"/>
<feComposite in2="hardAlpha" operator="arithmetic" k2="-1" k3="1"/>
<feColorMatrix type="matrix" values="0 0 0 0 1 0 0 0 0 1 0 0 0 0 1 0 0 0 1 0"/>
<feBlend mode="normal" in2="shape" result="effect3_innerShadow_286_4198"/>
</filter>
<linearGradient id="paint0_linear_286_4198" x1="23.8824" y1="33.6765" x2="32.3889" y2="2.92592" gradientUnits="userSpaceOnUse">
<stop stop-color="#91BEF7"/>
<stop offset="0.927091" stop-color="#2763AD"/>
</linearGradient>
<linearGradient id="paint1_linear_286_4198" x1="22.7969" y1="20.3499" x2="20.3183" y2="31.8725" gradientUnits="userSpaceOnUse">
<stop stop-color="white" stop-opacity="0.96"/>
<stop offset="1" stop-color="white" stop-opacity="0.23"/>
</linearGradient>
</defs>
</svg>
